<mxfile host="app.diagrams.net" modified="2022-06-29T15:42:25.477Z" agent="5.0 (Macintosh; Intel Mac OS X 10_15_7) AppleWebKit/537.36 (KHTML, like Gecko) Chrome/103.0.5060.53 Safari/537.36 Edg/103.0.1264.37" etag="TNoVvN8EwCuxZWTETVw0" version="20.0.3" type="github">
  <diagram id="Lf0-S_QwQX7I2inWrWsR" name="Page-1">
    <mxGraphModel dx="898" dy="623" grid="1" gridSize="10" guides="1" tooltips="1" connect="1" arrows="1" fold="1" page="1" pageScale="1" pageWidth="827" pageHeight="1169" math="0" shadow="0">
      <root>
        <mxCell id="0" />
        <mxCell id="1" parent="0" />
        <mxCell id="hDQiEqSYDpYvO7Tw1o3q-4" style="edgeStyle=orthogonalEdgeStyle;rounded=0;orthogonalLoop=1;jettySize=auto;html=1;entryX=0.5;entryY=0;entryDx=0;entryDy=0;" parent="1" source="hDQiEqSYDpYvO7Tw1o3q-2" target="hDQiEqSYDpYvO7Tw1o3q-6" edge="1">
          <mxGeometry relative="1" as="geometry">
            <mxPoint x="100" y="180" as="targetPoint" />
          </mxGeometry>
        </mxCell>
        <mxCell id="hDQiEqSYDpYvO7Tw1o3q-5" value="&lt;div&gt;&lt;span style=&quot;font-size: 11px;&quot;&gt;Babel、tsc编译&lt;/span&gt;&lt;br&gt;&lt;/div&gt;" style="edgeLabel;html=1;align=center;verticalAlign=middle;resizable=0;points=[];" parent="hDQiEqSYDpYvO7Tw1o3q-4" vertex="1" connectable="0">
          <mxGeometry x="-0.2" y="-3" relative="1" as="geometry">
            <mxPoint as="offset" />
          </mxGeometry>
        </mxCell>
        <mxCell id="hDQiEqSYDpYvO7Tw1o3q-2" value="JSX" style="rounded=0;whiteSpace=wrap;html=1;" parent="1" vertex="1">
          <mxGeometry x="40" y="40" width="120" height="60" as="geometry" />
        </mxCell>
        <mxCell id="hDQiEqSYDpYvO7Tw1o3q-8" value="" style="edgeStyle=orthogonalEdgeStyle;rounded=0;orthogonalLoop=1;jettySize=auto;html=1;" parent="1" source="hDQiEqSYDpYvO7Tw1o3q-6" target="hDQiEqSYDpYvO7Tw1o3q-7" edge="1">
          <mxGeometry relative="1" as="geometry" />
        </mxCell>
        <mxCell id="hDQiEqSYDpYvO7Tw1o3q-9" value="React.createElement()&lt;br&gt;创建并返回给定类型的新 React 元素" style="edgeLabel;html=1;align=center;verticalAlign=middle;resizable=0;points=[];" parent="hDQiEqSYDpYvO7Tw1o3q-8" vertex="1" connectable="0">
          <mxGeometry x="-0.225" y="2" relative="1" as="geometry">
            <mxPoint as="offset" />
          </mxGeometry>
        </mxCell>
        <mxCell id="hDQiEqSYDpYvO7Tw1o3q-6" value="JS" style="rounded=0;whiteSpace=wrap;html=1;" parent="1" vertex="1">
          <mxGeometry x="40" y="160" width="120" height="60" as="geometry" />
        </mxCell>
        <mxCell id="hDQiEqSYDpYvO7Tw1o3q-7" value="vDOM" style="rounded=0;whiteSpace=wrap;html=1;" parent="1" vertex="1">
          <mxGeometry x="40" y="300" width="120" height="60" as="geometry" />
        </mxCell>
      </root>
    </mxGraphModel>
  </diagram>
</mxfile>
